<?xml version="1.0" standalone="no"?>
<svg xmlns="http://www.w3.org/2000/svg" viewBox="0 0 293.384 53" width="293.384" height="53"><rect fill="none" stroke="#fe5d00" stroke-width="3" width="290.384" height="50" x="1.5" y="1.5"></rect><g fill="#ffffff" color="#ffffff" transform="translate(12, 12) scale(0.659091)"><svg width="44.0" height="44.0" x="0.0" y="0.0" viewBox="0 0 44 44"><path fill="currentColor" fill-rule="evenodd" d="M21.973 29.756l14.787 8.535-9.168 5.28-5.605-3.224-5.563 3.225-9.182-5.281 14.73-8.535zm0-15.005L44 27.454v6.492l-3.52 2.07-18.506-10.675L3.525 36.016l-3.52-2.042v-6.52L21.973 14.75zM21.97 0l22.026 12.689v10.576L21.984 10.591 0 23.294V12.703L21.97 0z"></path></svg></g><line x1="51.5" y1="0" x2="51.5" y2="100%" stroke="#fe5d00" stroke-width="3"></line><path fill="#ffffff" fill-rule="nonzero" d="M0 18.96L0 0.96L4.03 0.96Q7.30 0.96 8.78 2.23Q10.27 3.50 10.27 5.59L10.27 5.59Q10.27 6.91 9.76 7.92Q9.24 8.93 8.33 9.38L8.33 9.38Q9.48 9.98 10.15 10.98Q10.82 11.98 10.82 13.92L10.82 13.92Q10.82 18.96 2.88 18.96L2.88 18.96L0 18.96ZM3.41 8.28L4.25 8.28Q5.64 8.28 6.32 7.82Q7.01 7.37 7.01 5.95L7.01 5.95Q7.01 4.70 6.23 4.24Q5.45 3.77 4.10 3.77L4.10 3.77L3.41 3.77L3.41 8.28ZM3.53 16.15L4.18 16.15Q5.90 16.15 6.67 15.30Q7.44 14.45 7.44 13.44L7.44 13.44Q7.44 11.88 6.61 11.36Q5.78 10.85 4.30 10.85L4.30 10.85L3.53 10.85L3.53 16.15ZM13.01 19.10L13.01 5.74L16.37 5.45L16.37 7.63Q17.09 6.60 18.16 5.96Q19.22 5.33 20.88 5.33L20.88 5.33L20.88 8.62Q20.02 8.62 18.61 8.92Q17.21 9.22 16.37 9.96L16.37 9.96L16.37 18.82L13.01 19.10ZM27.10 19.27Q24.67 19.27 23.36 17.35Q22.06 15.43 22.06 12.24L22.06 12.24Q22.06 9.07 23.35 7.18Q24.65 5.28 27.10 5.28L27.10 5.28Q29.52 5.28 30.85 7.18Q32.18 9.07 32.18 12.24L32.18 12.24Q32.18 15.41 30.85 17.34Q29.52 19.27 27.10 19.27L27.10 19.27ZM27.10 16.78Q28.18 16.78 28.49 15.46Q28.80 14.14 28.80 12.22L28.80 12.22Q28.80 10.30 28.49 8.98Q28.18 7.66 27.10 7.66L27.10 7.66Q26.02 7.66 25.73 8.90Q25.44 10.15 25.44 11.95L25.44 11.95Q25.44 14.16 25.73 15.47Q26.02 16.78 27.10 16.78L27.10 16.78ZM44.64 18.26L41.66 19.27L38.93 12.55L37.82 14.02L37.82 18.96L34.46 18.96L34.46 1.39L37.82 0.96L37.82 9.89L41.26 5.45L44.90 5.45L41.11 10.32L44.64 18.26ZM50.76 19.27Q48.36 19.27 47.09 17.36Q45.82 15.46 45.82 12.29L45.82 12.29Q45.82 9.07 47.11 7.18Q48.41 5.28 50.88 5.28L50.88 5.28Q53.23 5.28 54.48 7.18Q55.73 9.07 55.73 12.29L55.73 12.29Q55.73 12.48 55.66 12.56Q55.58 12.65 55.58 12.67L55.58 12.67L49.18 12.67Q49.18 14.23 49.58 15.52Q49.99 16.80 50.83 16.80L50.83 16.80Q51.77 16.80 52.22 15.72Q52.68 14.64 52.70 14.59L52.70 14.59L55.25 15.55Q54.74 17.28 53.64 18.28Q52.54 19.27 50.76 19.27L50.76 19.27ZM49.18 10.73L52.42 10.73Q52.42 9.29 52.03 8.45Q51.65 7.61 50.83 7.61L50.83 7.61Q50.42 7.61 50.04 8.02Q49.66 8.42 49.42 9.14Q49.18 9.86 49.18 10.73L49.18 10.73ZM57.77 19.10L57.77 5.74L61.13 5.45L61.13 7.63Q61.85 6.60 62.92 5.96Q63.98 5.33 65.64 5.33L65.64 5.33L65.64 8.62Q64.78 8.62 63.37 8.92Q61.97 9.22 61.13 9.96L61.13 9.96L61.13 18.82L57.77 19.10ZM69.67 19.27Q68.81 19.27 68.11 18.73Q67.42 18.19 67.03 17.27Q66.65 16.34 66.65 15.19L66.65 15.19Q66.65 12.58 68.44 11.51Q70.22 10.44 72.60 10.30L72.60 10.30Q72.60 9 72.43 8.38Q72.26 7.75 71.62 7.75L71.62 7.75Q71.06 7.75 70.78 8.18Q70.49 8.62 70.42 9.29L70.42 9.29L67.13 8.71Q67.37 6.86 68.64 6.07Q69.91 5.28 71.62 5.28L71.62 5.28Q73.80 5.28 74.89 6.43Q75.98 7.58 75.98 9.43L75.98 9.43L75.98 16.42Q75.98 17.54 76.34 18.82L76.34 18.82L73.06 19.10L72.67 17.45Q72.24 18.22 71.40 18.74Q70.56 19.27 69.67 19.27L69.67 19.27ZM71.23 16.87Q71.64 16.87 71.92 16.68Q72.19 16.49 72.60 16.06L72.60 16.06L72.60 12.31Q71.40 12.31 70.68 12.96Q69.96 13.61 69.96 14.98L69.96 14.98Q69.96 15.89 70.28 16.38Q70.61 16.87 71.23 16.87L71.23 16.87ZM83.35 23.16Q80.66 23.16 79.18 22.40Q77.69 21.65 77.69 20.33L77.69 20.33Q77.69 19.42 78.36 18.78Q79.03 18.14 80.06 17.76L80.06 17.76Q79.15 17.50 78.70 17.09Q78.24 16.68 78.24 15.91L78.24 15.91Q78.24 14.98 78.89 14.22Q79.54 13.46 80.59 12.96L80.59 12.96Q78.43 11.71 78.43 9.48L78.43 9.48Q78.43 8.14 79.16 7.19Q79.90 6.24 81.06 5.76Q82.22 5.28 83.50 5.28L83.50 5.28Q85.39 5.28 86.86 6.29L86.86 6.29Q87.58 5.64 88.31 5.21Q89.04 4.78 90.14 4.78L90.14 4.78L90.14 7.01Q88.75 7.01 88.01 7.34L88.01 7.34Q88.30 8.09 88.40 8.52Q88.51 8.95 88.51 9.46L88.51 9.46Q88.51 11.09 87.41 12.30Q86.30 13.51 83.81 13.51L83.81 13.51L82.92 13.49Q82.70 13.46 82.39 13.46L82.39 13.46Q82.08 13.56 81.79 13.88Q81.50 14.21 81.50 14.57L81.50 14.57Q81.50 14.90 81.74 15.14Q81.98 15.38 82.34 15.43L82.34 15.43L86.18 15.86Q89.52 16.25 89.52 19.10L89.52 19.10Q89.52 21.34 87.80 22.25Q86.09 23.16 83.35 23.16L83.35 23.16ZM83.45 11.59Q84.19 11.59 84.60 11.03Q85.01 10.46 85.01 9.43L85.01 9.43Q85.01 8.38 84.58 7.85Q84.14 7.32 83.47 7.32L83.47 7.32Q82.73 7.32 82.30 7.92Q81.86 8.52 81.86 9.41L81.86 9.41Q81.86 10.22 82.22 10.91Q82.58 11.59 83.45 11.59L83.45 11.59ZM83.50 20.71Q86.23 20.71 86.23 19.22L86.23 19.22Q86.23 18.82 86.02 18.62Q85.80 18.43 85.33 18.35Q84.86 18.26 83.81 18.19L83.81 18.19L81.82 18.02Q81.38 18.17 81.07 18.54Q80.76 18.91 80.76 19.37L80.76 19.37Q80.76 20.02 81.44 20.36Q82.13 20.71 83.50 20.71L83.50 20.71ZM95.83 19.27Q93.43 19.27 92.16 17.36Q90.89 15.46 90.89 12.29L90.89 12.29Q90.89 9.07 92.18 7.18Q93.48 5.28 95.95 5.28L95.95 5.28Q98.30 5.28 99.55 7.18Q100.80 9.07 100.80 12.29L100.80 12.29Q100.80 12.48 100.73 12.56Q100.66 12.65 100.66 12.67L100.66 12.67L94.25 12.67Q94.25 14.23 94.66 15.52Q95.06 16.80 95.90 16.80L95.90 16.80Q96.84 16.80 97.30 15.72Q97.75 14.64 97.78 14.59L97.78 14.59L100.32 15.55Q99.82 17.28 98.71 18.28Q97.61 19.27 95.83 19.27L95.83 19.27ZM94.25 10.73L97.49 10.73Q97.49 9.29 97.10 8.45Q96.72 7.61 95.90 7.61L95.90 7.61Q95.50 7.61 95.11 8.02Q94.73 8.42 94.49 9.14Q94.25 9.86 94.25 10.73L94.25 10.73ZM113.81 19.30Q110.71 19.30 109.45 16.49Q108.19 13.68 108.19 9.58L108.19 9.58Q108.19 7.37 108.77 5.33Q109.34 3.29 110.63 1.96Q111.91 0.62 113.88 0.62L113.88 0.62Q115.39 0.62 116.53 1.56Q117.67 2.50 118.28 4.00Q118.90 5.50 118.90 7.13L118.90 7.13L115.49 7.30Q115.49 6.22 115.13 4.84Q114.77 3.46 113.69 3.46L113.69 3.46Q112.56 3.46 112.13 5.26Q111.70 7.06 111.70 9.58L111.70 9.58Q111.70 12.70 112.18 14.58Q112.66 16.46 114.02 16.46L114.02 16.46Q114.98 16.46 115.39 15.32Q115.80 14.18 115.92 12.55L115.92 12.55L118.92 12.84Q118.92 14.57 118.34 16.04Q117.77 17.52 116.62 18.41Q115.46 19.30 113.81 19.30L113.81 19.30ZM125.62 19.27Q123.19 19.27 121.88 17.35Q120.58 15.43 120.58 12.24L120.58 12.24Q120.58 9.07 121.87 7.18Q123.17 5.28 125.62 5.28L125.62 5.28Q128.04 5.28 129.37 7.18Q130.70 9.07 130.70 12.24L130.70 12.24Q130.70 15.41 129.37 17.34Q128.04 19.27 125.62 19.27L125.62 19.27ZM125.62 16.78Q126.70 16.78 127.01 15.46Q127.32 14.14 127.32 12.22L127.32 12.22Q127.32 10.30 127.01 8.98Q126.70 7.66 125.62 7.66L125.62 7.66Q124.54 7.66 124.25 8.90Q123.96 10.15 123.96 11.95L123.96 11.95Q123.96 14.16 124.25 15.47Q124.54 16.78 125.62 16.78L125.62 16.78ZM132.98 19.10L132.98 5.74L136.27 5.45L136.27 7.18Q137.02 6.31 137.99 5.80Q138.96 5.28 139.92 5.28L139.92 5.28Q141.43 5.28 141.91 7.39L141.91 7.39Q143.50 5.28 145.46 5.28L145.46 5.28Q146.76 5.28 147.31 6.31Q147.86 7.34 147.86 9.38L147.86 9.38L147.86 18.82L144.55 19.10L144.55 9.55Q144.55 8.90 144.31 8.53Q144.07 8.16 143.76 8.16L143.76 8.16Q143.26 8.16 142.81 8.44Q142.37 8.71 142.06 9.12L142.06 9.12L142.06 18.82L138.77 19.10L138.77 9.53Q138.77 8.86 138.56 8.51Q138.36 8.16 138.10 8.16L138.10 8.16Q137.62 8.16 137.11 8.45Q136.61 8.74 136.27 9.12L136.27 9.12L136.27 18.82L132.98 19.10ZM150.67 23.16L150.67 5.74L154.03 5.45L154.03 6.77Q154.82 5.98 155.51 5.63Q156.19 5.28 157.10 5.28L157.10 5.28Q158.35 5.28 159.08 5.98Q159.82 6.67 160.14 8.15Q160.46 9.62 160.46 12.10L160.46 12.10Q160.46 15.48 159.68 17.38Q158.90 19.27 156.70 19.27L156.70 19.27Q155.69 19.27 155.09 18.89Q154.49 18.50 154.03 17.81L154.03 17.81L154.03 22.49L150.67 23.16ZM155.50 16.70Q156.29 16.70 156.68 15.77Q157.08 14.83 157.08 12.24L157.08 12.24Q157.08 9.77 156.68 8.74Q156.29 7.70 155.47 7.70L155.47 7.70Q154.63 7.70 154.03 8.64L154.03 8.64L154.03 15.62Q154.51 16.70 155.50 16.70L155.50 16.70ZM165 19.27Q164.14 19.27 163.44 18.73Q162.74 18.19 162.36 17.27Q161.98 16.34 161.98 15.19L161.98 15.19Q161.98 12.58 163.76 11.51Q165.55 10.44 167.93 10.30L167.93 10.30Q167.93 9 167.76 8.38Q167.59 7.75 166.94 7.75L166.94 7.75Q166.39 7.75 166.10 8.18Q165.82 8.62 165.74 9.29L165.74 9.29L162.46 8.71Q162.70 6.86 163.97 6.07Q165.24 5.28 166.94 5.28L166.94 5.28Q169.13 5.28 170.22 6.43Q171.31 7.58 171.31 9.43L171.31 9.43L171.31 16.42Q171.31 17.54 171.67 18.82L171.67 18.82L168.38 19.10L168 17.45Q167.57 18.22 166.73 18.74Q165.89 19.27 165 19.27L165 19.27ZM166.56 16.87Q166.97 16.87 167.24 16.68Q167.52 16.49 167.93 16.06L167.93 16.06L167.93 12.31Q166.73 12.31 166.01 12.96Q165.29 13.61 165.29 14.98L165.29 14.98Q165.29 15.89 165.61 16.38Q165.94 16.87 166.56 16.87L166.56 16.87ZM174.10 19.10L174.10 5.74L177.46 5.45L177.46 7.18Q178.49 6.26 179.48 5.77Q180.48 5.28 181.32 5.28L181.32 5.28Q182.59 5.28 183.40 6.20Q184.20 7.13 184.20 8.69L184.20 8.69L184.20 18.82L180.84 19.10L180.84 9.96Q180.84 8.16 179.62 8.16L179.62 8.16Q179.21 8.16 178.72 8.40Q178.22 8.64 177.46 9.10L177.46 9.10L177.46 18.82L174.10 19.10ZM190.42 3.58L187.06 3.72L187.06 0.24L190.42 0L190.42 3.58ZM190.39 18.82L187.03 19.10L187.03 5.74L190.39 5.45L190.39 18.82ZM197.64 19.27Q195.24 19.27 193.97 17.36Q192.70 15.46 192.70 12.29L192.70 12.29Q192.70 9.07 193.99 7.18Q195.29 5.28 197.76 5.28L197.76 5.28Q200.11 5.28 201.36 7.18Q202.61 9.07 202.61 12.29L202.61 12.29Q202.61 12.48 202.54 12.56Q202.46 12.65 202.46 12.67L202.46 12.67L196.06 12.67Q196.06 14.23 196.46 15.52Q196.87 16.80 197.71 16.80L197.71 16.80Q198.65 16.80 199.10 15.72Q199.56 14.64 199.58 14.59L199.58 14.59L202.13 15.55Q201.62 17.28 200.52 18.28Q199.42 19.27 197.64 19.27L197.64 19.27ZM196.06 10.73L199.30 10.73Q199.30 9.29 198.91 8.45Q198.53 7.61 197.71 7.61L197.71 7.61Q197.30 7.61 196.92 8.02Q196.54 8.42 196.30 9.14Q196.06 9.86 196.06 10.73L196.06 10.73ZM208.68 19.27Q206.69 19.27 205.46 18.37Q204.24 17.47 203.88 15.86L203.88 15.86L206.50 15Q206.59 15.46 206.86 15.82L206.86 15.82Q207.41 16.61 208.46 16.61L208.46 16.61Q209.06 16.61 209.62 16.34Q210.17 16.08 210.17 15.53L210.17 15.53Q210.17 14.78 209.14 14.38L209.14 14.38L206.30 13.22Q205.18 12.74 204.58 11.78Q203.98 10.82 203.98 9.43L203.98 9.43Q203.98 8.14 204.61 7.20Q205.25 6.26 206.29 5.77Q207.34 5.28 208.54 5.28L208.54 5.28Q210.05 5.28 211.32 6.16Q212.59 7.03 213.02 8.54L213.02 8.54L210.24 9.41Q210.14 9 209.90 8.59L209.90 8.59Q209.38 7.78 208.56 7.78L208.56 7.78Q207.96 7.78 207.53 8.05Q207.10 8.33 207.10 8.86L207.10 8.86Q207.10 9.48 208.27 10.01L208.27 10.01L210.67 10.99Q211.94 11.59 212.66 12.50Q213.38 13.42 213.38 14.95L213.38 14.95Q213.38 16.34 212.71 17.32Q212.04 18.29 210.96 18.78Q209.88 19.27 208.68 19.27L208.68 19.27Z" transform="translate(65 17.02)"></path></svg>